<?xml version="1.0" encoding="utf-8"?>
<!-- Generator: Adobe Illustrator 21.0.2, SVG Export Plug-In . SVG Version: 6.00 Build 0)  -->
<svg version="1.1" id="Layer_1" xmlns="http://www.w3.org/2000/svg" xmlns:xlink="http://www.w3.org/1999/xlink" x="0px" y="0px"
	 viewBox="0 0 256.4 197.6" style="enable-background:new 0 0 256.4 197.6;" xml:space="preserve">
<style type="text/css">
	.st0{fill:#FFFFFF;}
</style>
<g id="tBvGSx_1_">
	<g>
		<path class="st0" d="M129.4,0c0.4,0.1,0.8,0.3,1.2,0.4c5.2,1.8,6.6,8.3,2.7,12.1c-0.5,0.5-0.7,1.2-1.2,2c2.5,0.2,4.6,0.4,6.7,0.6
			c18.5,2,35,8.6,49.4,20.3c7.5,6.1,13.8,13.4,18.7,21.9c0.4,0.7,0.8,0.8,1.5,0.8c4.7-0.5,9.5-0.9,14.2-1.3c1.5-0.1,3-0.3,4.7-0.4
			c0,2.1,0,4.2,0,6.3c4.1-0.3,8.1-0.6,12.3-0.9c0,0.5,0,1,0,1.5c0,7.6,0,15.2,0,22.8c0,0.7,0.2,1.2,0.8,1.7
			c9.1,6.1,14.4,14.7,15.7,25.6c1.5,12.4-2.3,23.1-11.4,31.7c-1.2,1.1-2.6,2.2-4,3.1c-0.9,0.6-1.1,1.2-1.1,2.2c0,7.5,0,15,0,22.6
			c0,0.4,0,0.9,0,1.4c-4.1-0.3-8.1-0.6-12.2-0.9c0,2,0,4,0,6.2c-0.5,0-0.9,0-1.3,0c-5.6-0.5-11.1-1.1-16.7-1.6
			c-4.9-0.4-9.9-0.9-14.8-1.3c-1-0.1-2.1-0.1-3.1-0.3c-1.3-0.3-2.2,0.2-3.1,1c-12.5,10.1-26.7,16.5-42.6,19
			c-24,3.8-46.4-0.6-66.9-13.9c-2.6-1.7-5-3.7-7.5-5.5c-0.5-0.4-1.2-0.6-1.8-0.6c-7.8,0.6-15.5,1.3-23.3,2
			c-4.1,0.4-8.3,0.8-12.4,1.2c-0.2,0-0.4,0-0.7,0c0-2,0-4,0-6.2c-4.2,0.3-8.2,0.6-12.4,0.9c0-0.6,0-1,0-1.5c0-6.9,0-13.8,0-20.8
			c0-0.9-0.3-1.3-1.1-1.7c-10.5-5.5-16.7-14.2-18.9-25.7c-0.4-2.1-0.5-4.3-0.7-6.4c0-0.1,0-0.2,0-0.2c0.2-2.1,0.3-4.3,0.7-6.4
			c2.2-11.6,8.4-20.3,18.9-25.7c0.8-0.4,1.1-0.8,1.1-1.7c0-6.9,0-13.8,0-20.8c0-0.5,0-0.9,0-1.5c4.2,0.3,8.2,0.6,12.4,0.9
			c0-2.2,0-4.2,0-6.2c0.4,0,0.7,0,1,0c4.7,0.4,9.4,0.9,14.1,1.4c0.8,0.1,1.3,0,1.7-0.8c4.8-8.3,11-15.5,18.5-21.6
			c14.4-11.8,31-18.3,49.4-20.3c2.1-0.2,4.2-0.4,6.7-0.6c-0.5-0.8-0.7-1.5-1.2-2c-3.9-3.8-2.5-10.3,2.7-12.1
			c0.4-0.1,0.8-0.3,1.2-0.4C127.9,0,128.6,0,129.4,0z M25.2,66.6c0,0.6,0,1.1,0,1.5c0,6.2,0,12.3,0,18.5c0,1.2-0.3,1.8-1.5,2.3
			C9.2,94.7,2.3,110,5.2,124.2c2.2,11,8.5,18.7,18.9,23c0.9,0.4,1.1,0.8,1.1,1.7c0,6.3,0,12.6,0,18.8c0,0.5,0,0.9,0,1.5
			c4.2-0.3,8.2-0.6,12.3-0.9c0,2.2,0,4.1,0,6.2c2.5-0.2,4.9-0.4,7.3-0.6c7.9-0.7,15.9-1.3,23.8-2.2c2.5-0.3,4.2,0.4,6.1,1.9
			c20.6,16.5,44.2,22.1,70.1,18.2c16.1-2.4,30.4-9.1,42.8-19.7c0.4-0.3,1.1-0.6,1.6-0.5c2,0.1,3.9,0.3,5.9,0.5
			c6.8,0.6,13.5,1.2,20.3,1.8c2.5,0.2,4.9,0.4,7.6,0.7c0-2.1,0-4.1,0-6.2c4.2,0.3,8.2,0.6,12.3,0.9c0-0.6,0-1.1,0-1.5
			c0-6.8,0-13.7,0-20.5c0-0.8,0.3-1.3,1-1.7c2.9-1.6,5.4-3.6,7.6-6c13.7-15.1,9.9-39.4-7.5-49.2c-0.8-0.5-1.1-1-1-1.9
			c0-6.8,0-13.6,0-20.4c0-0.5,0-0.9,0-1.5c-4.2,0.3-8.2,0.6-12.4,0.9c0-2.1,0-4.1,0-6.2c-4.5,0.4-8.8,0.8-13,1.2
			c1.3,3.6,2.5,7.1,3.8,10.6c0.1,0.3,0.6,0.6,1,0.6c1.1,0.1,2.2,0,3.4,0c1.4,0.1,2.3,1,2.3,2.2c0,1.3-0.9,2.2-2.3,2.2
			c-0.3,0-0.6,0-1,0c-59.2,0-118.3,0-177.5,0c-0.3,0-0.6,0-1,0c-1.4-0.1-2.3-1-2.3-2.2c0-1.3,0.9-2.2,2.3-2.2c1,0,2-0.1,3,0
			c0.8,0.1,1.3-0.2,1.5-1.1c0.4-1.6,1-3.2,1.6-4.8c0.7-1.9,1.5-3.7,2.4-5.7c-3.2-0.3-6.3-0.6-9.6-0.9c0,2.1,0,4.1,0,6.2
			C33.3,67.2,29.3,66.9,25.2,66.6z M166.1,60.2c0-1.1,0-2.1,0-3.2c0-1.4,0.8-2.1,2.2-2.2c3.4-0.2,6.6,0.3,9.8,1.2
			c0.8,0.2,1,0.5,1,1.3c-0.1,1.3,0,2.5,0,3.8c3.2,0,6.2,0,9.2,0c0-0.5,0.1-0.8,0.1-1.5c1.3,0.2,2.5,0.4,3.8,0.6
			c-0.2,0.4-0.3,0.6-0.5,0.9c1.3,0,2.5,0,3.8,0c-0.1,0.3-0.2,0.6-0.3,0.9c0.1,0,0.2-0.1,0.3-0.1c0.2,0.4,0.4,0.7,0.6,1.1
			c0.1,0.3,0.1,0.9,0.4,1c0.9,0.4,1.1,1.1,1,2c0,0.5,0,1.1,0,1.7c3.8,1.1,7.6,2.1,11.7,3.3c-1-2.3-1.7-4.3-2.6-6.3
			c-7.6-16-19.6-27.8-35.1-36c-16.9-8.9-34.9-12-53.9-9.9c-12,1.3-23.4,4.8-33.9,10.7c-15.8,8.8-27.7,21.1-34.8,38
			c-0.2,0.4-0.3,0.8-0.4,1.2c3.3,0,6.5,0,9.7,0c0-0.5,0-1,0-1.4c0-2.8,0-5.7,0-8.5c0-1.1,0.4-1.5,1.5-1.5c0.9,0,1.8,0,2.7,0
			c0.4-1.5,1.1-2.2,2.6-2.2c2.6,0,5.2,0,7.8,0c1.2,0,2.5,0,3.8,0c0,3.6,0,7.1,0,10.6c1.9,0,3.6,0,5.4,0c0.1-0.8-0.1-1.7,0.2-2.3
			c0.3-0.5,1-1.4,1.8-0.3c0.5-1.1,1.2-0.8,1.9-0.6c0.5,0.1,1,0.4,1.5,0.5c0.4,0.1,0.8,0.1,1.3,0.1c0,1.8,0,3.5,0,5.2
			c1.7,0,3.2,0,4.9,0c0.3-1.4,0.5-2.8,0.7-4.2c0.2-1.3,0.5-2.6,0.7-4c0.2-1.4,0.3-2.7,0.5-4.1c0,0,0.1,0,0.1,0
			c0.4,3.7,0.8,7.4,1.2,11.2c0.7,0,1.4,0,2.4,0c-0.3-0.5-0.5-0.9-0.7-1.3c1.1-0.6,2.1-1.7,3.3-0.4c0.2,0.2,0.3,0.5,0.6,0.8
			c0.5,0,1.2,0,1.9,0c0.1-1.7,0.6-2.3,2.3-2.3c0.8,0,1.7,0.1,2.3,0.6c0.4,0.3,0.4,1.1,0.7,1.8c0.4-0.2,0.8-0.5,1.5-0.8
			c0.3,0.4,0.5,1,0.9,1.2c0.9,0.3,1.8,0.5,2.8,0.5c0.4,0,0.9-0.3,1.3-0.4c0.4-0.1,0.9,0,1.5,0c0-2.9,0-5.7,0-8.6c2,0,4,0,5.9,0
			c0.1-0.7,0.1-1.8,0.2-1.8c1.2-0.3,0.6-1.2,0.9-1.7c0.7-0.6,1.3-1.3,1.8-2.1c0.4-0.7,0.9-0.9,1.8-0.8c1.8,0.3,3.6,0.5,5.5,0.7
			c0.3,0,0.7,0.2,0.9,0.5c0.7,0.9,1.3,1.8,2,2.7c0.2,0.2,0.4,0.4,0.6,0.6c0.4,0.3,0.8,0.6,1.2,0.9c0,0.1-0.1,0.2-0.1,0.2
			c0.4,0,0.8,0.1,1.3,0.1c0,2.2,0,4.3,0,6.5c0,1.4,0.1,1.4,1.6,1c0-2.4,0-4.8,0-7.2c0.4-0.1,0.7-0.1,1-0.2c0.2-1.9,0.5-2.2,1.7-2
			c0.1,0.4,0.2,0.7,0.3,1.1c0.1,0,0.2,0,0.3-0.1c0-0.8-0.1-1.6,0-2.4c0-0.4,0.4-0.8,0.7-0.9c1.4-0.5,2.1,0,2.1,1.5
			c0,0.2,0,0.5,0,0.7c0.6,0.1,1.1,0.1,1.6,0.1c0,0.4,0.1,0.8,0.2,1.6c0.6-0.5,1-0.8,1.5-1.2c0.8,0.2,1.7,0.5,2.7,0.6
			c0.7,0.1,0.9,0.5,0.9,1.1c0,1,0,2,0,3c0.9,0,1.6-0.1,2.3,0c0.9,0.1,1.6,0.5,1.5,1.6c0,0.8,0,1.7,0,2.5c2.3,0,4.5,0,6.8,0
			c0-1.6,0-3.1,0-4.7C165.4,60.3,165.7,60.3,166.1,60.2z M128.3,9.1c1.5,0,2.1-0.6,2.1-1.9c0-1.1-0.9-2-2-2.1
			c-1.2,0-2.1,0.9-2.2,2.1C126.2,8.5,126.8,9.1,128.3,9.1z"/>
		<path class="st0" d="M44.3,118.8c-0.3,0.3-0.5,0.5-0.8,0.6c-5.3,2.8-11,3.8-16.8,2.4c-6.4-1.5-10.4-8-9.6-14.6
			c0.9-6.7,4.6-11.7,9.7-15.6c8-6.1,17.1-7.8,26.7-5.7c7,1.5,11.8,7.5,12.4,14.6c0.1,1.5,0.2,3.1,0.1,4.7c-0.1,2.5-1.2,4.6-2.6,6.6
			c-3.2,4.3-6.5,8.5-9.5,12.9c-1.5,2.2-2.8,4.6-3.8,7c-0.5,1.2-0.4,2.8-0.2,4.2c0.2,1.4,1.2,2,2.6,2c2.4,0,4.4-1.1,6.2-2.6
			c2.4-2.1,4.3-4.6,6-7.3c3.6-5.5,7-11.2,10.9-16.5c5.3-7.2,12.2-12.8,19.6-17.8c0.3-0.2,0.5-0.3,0.8-0.5c0.1,0,0.1-0.1,0.2-0.3
			c-3.3-2.4-6.7-4.4-10.3-6.1c-3.7-1.7-7.6-1.9-11.6-1.7c0-0.1,0-0.2,0-0.3c0.1-0.1,0.2-0.2,0.2-0.2c5.7-0.1,11.4-0.2,16.6,2.5
			c2.3,1.2,4.5,2.8,6.7,4.2c0.7,0.5,1.2,0.6,2.1,0.3c4.2-1.5,8.4-3.3,12.7-4.1c7.6-1.5,15.2-1.5,22.3,2.2c2.2,1.1,4.3,2.5,5.8,4.6
			c4.6,6.5,4.1,13.9-5.4,17.1c-2.6,0.9-5.2,0.7-7.8,0.4c-0.9-0.1-1.4,0.1-1.6,1.1c1.9,0,3.9,0,5.8,0c0,1.1-0.5,1.5-1.4,1.4
			c-1.4-0.1-2.8-0.1-4.2,0c-0.4,0-1.1,0.3-1.3,0.7c-2.9,5-5.7,10-8.6,15c-0.4,0.7-0.7,1.5-1.1,2.3c-0.5,1.1-0.3,2.2,0.3,3.2
			c0.6,1.1,1.5,1.4,2.6,1c0.8-0.3,1.7-0.6,2.4-1c4.2-2.4,7.5-5.9,10-10c1.6-2.6,2.9-5.3,5.1-7.4c3.3-3.1,7-5.1,11.5-5.5
			c5.7-0.6,8.3,4.6,7.7,8.6c-0.3,1.9-1,3.7-1.6,5.6c0.3-0.1,0.6-0.2,0.9-0.3c2.9-1.2,5.5-2.9,7.9-4.9c0.6-0.5,1-1.3,1.4-2.1
			c0.9-1.6,1.8-3.2,2.6-4.8c0.6-1,1.5-1.6,2.6-1.2c1.9,0.7,3.3,0.4,4.5-1.3c0.1-0.2,0.4-0.3,0.9-0.6c-0.3,0.6-0.5,1-0.7,1.4
			c-3.2,6-6.3,11.9-9.5,17.9c-0.6,1.1-1,2.3-1.2,3.5c-0.3,2,0.7,2.8,2.6,2.1c2.5-0.9,4.3-2.8,5.8-4.9c1.8-2.5,3.4-5.1,4.9-7.8
			c1.7-3,3.3-6,4.9-9.1c0.6-1.1,1.5-1.7,2.6-1.3c1.9,0.7,3.4,0.3,4.6-1.3c0.1-0.2,0.3-0.2,0.7-0.3c-0.2,0.3-0.3,0.7-0.5,1
			c-3,5.7-6.1,11.3-9,17.1c-0.8,1.5-1.3,3.2-1.6,4.8c-0.3,1.7,0.7,2.4,2.5,2.4c2-0.1,3.5-1.1,4.8-2.4c2.5-2.4,4.3-5.4,5.9-8.6
			c-2.4-2.5-3.2-5.4-2.4-8.7c0.6-2.5,1.9-4.4,4.4-5.3c1.9-0.6,3.4-0.1,4.7,1.4c2.2,2.7,2,5.8,1.1,8.9c-0.4,1.2-1,2.3-1.6,3.7
			c0.7-0.1,1.3-0.2,1.8-0.4c2.4-1.1,4.8-2.2,7.2-3.4c0.5-0.2,0.8-0.7,1.1-1.2c1-1.9,2-3.8,2.9-5.6c1.1-2.1,2-2.5,4.3-1.8
			c0.9,0.3,1.6,0.1,2.3-0.5c0.5-0.5,1.1-0.9,1.8-1.3c-1.2,2.3-2.4,4.6-3.6,6.9c0.1,0,0.1,0.1,0.2,0.1c1.4-1,2.6-2.2,4.1-3.1
			c1.9-1.1,3.9-2.1,6-3c0.8-0.3,1.9-0.3,2.8-0.2c2.1,0.3,3.2,2.5,2.4,5c-0.4,1.2-1,2.4-1.7,3.5c-2.5,4-5.1,7.9-7.6,11.9
			c-0.3,0.4-0.6,0.8-0.7,1.2c-0.2,0.6-0.4,1.5-0.2,1.8c0.4,0.4,1.3,0.7,1.9,0.6c1-0.3,2-0.8,2.8-1.5c1.3-1,2.4-2.2,3.5-3.4
			c3.8-4.1,7.6-8.3,11.4-12.5c0.4-0.4,0.7-0.9,1.3,0c-2.4,2.7-4.7,5.3-7.1,8c-2,2.2-3.9,4.4-5.9,6.6c-1.9,2-3.9,3.8-6.7,4.3
			c-4.9,0.9-6.4-2.9-5.8-6c0.3-1.5,1.1-2.9,1.9-4.2c2.1-3.4,4.3-6.6,6.5-9.9c0.1-0.2,0.3-0.4,0.4-0.6c0.2-0.8,0.4-1.5,0.6-2.3
			c-0.9,0-1.9-0.2-2.6,0.1c-2.8,1.1-4.8,3.3-6.7,5.5c-3.5,4-6.2,8.5-8.6,13.2c-0.5,1-1.1,1.9-1.7,2.7c-0.5,0.7-1.3,1.1-2.1,0.8
			c-2-0.8-3.6-0.5-4.9,1.4c-0.1-0.1-0.2-0.2-0.2-0.3c2.5-4.7,4.9-9.4,7.3-14c-2.5,0.8-5.1,1.7-7.6,2.5c-1.1,0.3-1.8,0.7-2.5,1.6
			c-3.9,4.9-8.9,8.2-15.1,9.5c-1.1,0.2-2.3,0.2-3.5,0.1c-2.7-0.3-4.4-2.8-4-5.6c0.1-0.4,0.1-0.8,0-1.3c-0.3,0.3-0.6,0.6-0.9,0.9
			c-1.5,1.4-2.8,2.8-4.4,4c-1.1,0.8-2.4,1.4-3.8,1.8c-3.9,1.1-6.9-1.7-6.3-5.7c0.3-1.9,1.1-3.6,1.8-5.4c0.4-1,1-2,1.4-3.1
			c-0.3,0.2-0.6,0.4-0.9,0.6c-2.2,1.5-4.4,2.8-7,3.5c-0.5,0.1-0.9,0.6-1.2,1c-3.3,4.6-7.5,7.9-13.1,9.1c-5.5,1.2-9.3-2.3-8.9-7.9
			c0-0.5,0.1-1,0.2-1.8c-1.1,1.3-1.9,2.3-2.8,3.3c-2.8,3.1-6,5.6-10.2,6.5c-4.8,1-7.7-1.9-6.7-6.8c0.1-0.4,0.2-0.7,0.1-1.2
			c-0.8,0.9-1.6,1.7-2.5,2.6c-2.5,2.5-5.1,4.8-8.4,6.1c-0.9,0.4-1.9,0.7-2.9,0.8c-2,0.4-3.7-0.1-5.1-1.7c-0.9,0.5-1.7,1-2.5,1.3
			c-1,0.4-2.1,0.7-3.1,0.7c-1.8,0.1-2.7-0.6-3.4-2.2c-0.1-0.4-0.3-0.7-0.6-1.4c-1.9,4.1-3.8,7.9-5.6,11.8c-1.9,4.2-3.7,8.5-5.6,12.7
			c-0.5,1.1-1.1,2-1.7,3c-0.6,1-1.5,1.2-2.6,1c-0.1,0-0.2,0-0.2-0.1c-2.2-1.3-3.8-0.3-5.2,1.3c-0.2,0.2-0.3,0.3-0.7,0.6
			c5.4-10.1,10.8-20.1,16.1-30.1c-0.1-0.1-0.1-0.1-0.2-0.2c-0.3,0.2-0.6,0.3-0.8,0.5c-1.9,1.2-3.9,1.8-6.1,1.9c-2.3,0-3.6-0.9-4.3-3
			c-0.5-1.5-0.6-3-1-4.6c-0.2,0.2-0.4,0.4-0.6,0.6c-2,1.8-3.8,3.9-6.1,5.4c-5.2,3.5-10.1,1.2-11.3-5c-0.5-2.8,0.1-5.5,1.1-8.1
			c1.3-3.3,3.4-6.1,5.5-9c2.1-2.8,4.1-5.7,6.1-8.6c0.5-0.7,0.9-1.4,1.3-2.1c4.8-7,0.5-16.3-7.6-17.9C43,84.8,34.3,86.8,26.6,93
			c-3.9,3.2-7,7-8.3,12c-2,7.6,2.1,15,9.4,16.3c5.2,1,10.3-0.1,15.1-2.3c0.3-0.2,0.6-0.3,1-0.4C43.9,118.6,44,118.7,44.3,118.8z
			 M98.4,95.1c-4.8,3.9-9.1,8-13.1,12.5c-5.9,6.8-10.1,14.6-14,22.5c-0.8,1.7-1.4,3.5-2,5.2c-0.5,1.6,0.2,2.2,1.8,2
			c3.5-0.5,6.1-2.3,7.8-5.3c3.2-5.7,6.3-11.5,9.4-17.2c0.7-1.3,1.5-1.6,2.9-1.2c0.3,0.1,0.6,0.1,0.9,0.3c0.9,0.4,1.6,0.1,2.3-0.6
			c0.5-0.5,1.1-1,1.6-1.5c0.1,0.1,0.1,0.1,0.2,0.2c-0.3,0.6-0.6,1.2-1,2c4.1-2.5,7.9-1.1,8.9,3.3c0.4,1.8,0.2,3.8-0.2,5.7
			c-1.1,4.6-4.1,8.1-7.5,11.2c-1.3,1.1-2.6,2.2-3.9,3.3c0.9,1.1,1.9,1.8,3.2,1.5c1.6-0.4,3.4-0.8,4.8-1.6c5.5-3.4,10-7.9,13.1-13.7
			c1.4-2.6,2.7-5.4,4-8.1c0.2-0.3,0.3-0.7,0.5-1.2c-2,0-3.8,0-5.7,0c0.6-0.9,1.2-1.4,2.3-1.3c1.3,0.1,2.6-0.1,3.8,0
			c1.8,0.2,2.9-0.9,4.3-2C112.9,108.4,105.3,102.4,98.4,95.1z M133.6,98.5c0.1,0.1,0.2,0.2,0.3,0.3c-2.3,4-4.5,7.9-6.8,12
			c4.6,1,8.8,0.2,12.4-2.5c1.5-1.2,2.7-2.6,2.9-4.6c0.5-4.4-1.2-8-4.6-10.8c-4-3.2-8.7-4.7-13.7-5.1c-5.9-0.4-11.5,0.7-17,2.8
			c-2.3,0.9-4.5,1.9-7.1,2.9c2.5,2.2,4.7,4.3,7.1,6.3c4.7,4,9.7,7.5,15.5,9.8c1.1,0.4,1.9,0.4,2.6-0.6c2.4-3.2,4.8-6.3,7.3-9.5
			C132.8,99.1,133.2,98.8,133.6,98.5z M146.9,126.8c0.7-1.8,1.5-3.5,2-5.3c0.5-1.8,0.9-3.7,1.1-5.6c0.2-1.5-0.7-2.4-2.2-2
			c-1.3,0.3-2.6,1-3.6,1.9c-2.7,2.4-4.4,5.6-6.2,8.8c-1.6,2.9-3.1,6-3.5,9.4c-0.2,1.2-0.3,2.6,0.7,3.3c1.2,0.8,2.4,0.1,3.4-0.6
			c3.3-2.2,5.3-5.5,7.4-8.7c-1.2-0.7-2.3-1.3-3.3-2c-1.2-0.9-1.4-2.3-0.9-3.6c0.4-1,1.6-1.6,2.8-1.2c0.5,0.2,1.1,0.9,1.2,1.4
			c0.3,1.2-0.7,1.6-1.7,1.9c-0.1,0-0.2,0.1-0.4,0.1C144.2,125.9,145.3,126.5,146.9,126.8z M90.2,134.7c3.3-4.3,6.1-8.7,8-13.6
			c0.6-1.4,1-3,1.2-4.5c0.3-1.7-0.8-2.7-2.4-1.9c-1.4,0.7-2.8,1.7-3.9,2.9c-3.8,4.4-6.5,9.4-8.8,14.7c-0.1,0.1-0.1,0.3-0.1,0.5
			C86.7,132.1,88.4,133.5,90.2,134.7z M191.5,125.1c1.5-2.1,2.1-4.4,2.6-6.7c0.2-1,0.4-2.1,0.3-3.2c0-1.1-0.8-1.7-1.9-1.3
			c-0.6,0.2-1.3,0.6-1.6,1.1c-0.6,1.1-1.1,2.3-1.3,3.5C189.4,120.9,189.6,123.2,191.5,125.1z M89.5,135.9c-1.8-1.6-3.2-2.6-5.2-2
			c-0.3,0.1-0.9,0.5-0.9,0.6c0.2,0.9,0.3,1.9,0.8,2.7c0.3,0.5,1.3,0.9,1.8,0.7C87.2,137.4,88.2,136.6,89.5,135.9z"/>
		<path class="st0" d="M137.1,155.3c0,0.8,0.1,1.3,0.1,2c0.9-0.5,1.7-1,2.6-1.4c1.1-0.5,1.8,0.2,2.4,1.1c1.3-0.5,2.6-1.1,4.2-1.7
			c0,0.6,0,1,0,1.4c0,3,0,5.9,0,8.9c0,1.4,0.5,1.8,1.8,1.8c1.3,0,1.8-0.4,1.8-1.8c0-2,0.1-4.1,0-6.1c0-0.5-0.6-1.1-0.8-1.6
			c-0.1-0.3-0.1-0.8,0-0.9c1.3-0.6,2.6-1.1,4.1-1.7c0.1,0.7,0.1,1.3,0.2,2c0.7-0.4,1.4-0.7,2-1c3.3-1.5,5.9,0.2,5.9,3.8
			c0,1.8,0,3.7,0,5.5c0,0.9,0.1,1.7,1.3,1.8c0.2,0,0.5,0.4,0.7,0.6c-0.1,0.1-0.1,0.2-0.2,0.3c-2.1,0-4.2,0-6.3,0
			c-0.2,0-0.5-0.2-0.5-0.4c0-0.2,0.2-0.5,0.4-0.5c1.3-0.1,1.3-1,1.3-1.9c0-1.9,0-3.8,0-5.6c-0.1-1.5-0.9-2.2-2.3-2.2
			c-1.4,0-2.3,0.8-2.4,2.3c0,2,0,3.9,0,5.9c0,0.8,0.2,1.4,1.1,1.5c0.2,0,0.4,0.3,0.5,0.5c-0.2,0.1-0.4,0.4-0.6,0.4
			c-4.3,0-8.6,0-12.9,0c-0.1-0.1-0.1-0.2-0.2-0.4c0.3-0.2,0.5-0.5,0.8-0.6c0.8-0.2,1.1-0.7,1.1-1.4c0-2.2,0-4.5,0-6.7
			c0-0.5-0.4-0.9-0.7-1.7c-1,1.7-2.1,1.8-3.5,1c-0.9-0.6-1.5-0.1-1.6,1c0,2.2,0,4.3,0,6.5c0,1,0.5,1.3,1.4,1.4
			c0.4,0,0.7,0.3,1.1,0.5c-0.1,0.1-0.1,0.3-0.2,0.4c-2.3,0-4.6,0-6.9,0c-0.2,0-0.3-0.2-0.5-0.4c0.2-0.2,0.3-0.5,0.5-0.6
			c1.2-0.1,1.3-1,1.3-1.9c0-1.7,0-3.4,0-5.2c0-1,0.1-2-1-2.5c-0.1,0,0-0.7,0.1-0.8C134.4,156.4,135.6,155.9,137.1,155.3z"/>
		<path class="st0" d="M101,165.1c-0.6,3-2.8,3.2-5,3.5c-3.9,0.5-7.6,0-10.7-2.6c-5.1-4.1-4.8-14.2,3.4-17.3
			c3.7-1.4,7.4-1.1,11.1-0.2c0.2,0.1,0.6,0.5,0.6,0.7c0.2,1.2,0.2,2.4,0.3,3.6c0,0.2-0.2,0.5-0.3,0.7c-0.2-0.2-0.5-0.3-0.7-0.5
			c-1.6-3.2-3.1-4.2-6.3-4c-3.3,0.2-5.5,2-6.5,5c-1,2.9-0.9,5.9,0.3,8.8c1.5,3.4,4.8,5.2,8.4,4.6c2.1-0.4,3.5-1.7,4.5-3.4
			c0.2-0.4,0.7-0.7,1.1-1c0,0.5,0.1,0.9,0.1,1.4c0,0.1,0,0.2,0,0.1c0.9-0.5,1.8-1.1,2.7-1.6c0.6-0.3,1.3-0.5,1.9-0.7
			c1.9-0.7,2.4-1.6,1.7-3.5c-0.2-0.6-1-1.2-1.6-1.3c-0.8-0.2-1.5,0.4-1.6,1.2c-0.2,1.4-1.2,1.5-2.3,1.7c-0.8,0.1-1.1-0.3-0.7-1
			c0.1-0.1,0.1-0.3,0.2-0.4c1.2-2,4.7-3.3,7-2.7c1.3,0.4,2.2,1.2,2.2,2.6c0.1,1.8,0,3.6-0.1,5.4c0,0.5,0,1,0,1.6
			c0.1,1.2,0.7,1.6,2,1.3c0.2,0,0.4,0,0.8-0.1c-0.2,0.4-0.3,0.7-0.5,0.9c-1.2,1.2-3.4,1.4-4.7,0.3c-0.6-0.5-0.9-0.4-1.5-0.1
			c-0.5,0.3-1.2,0.6-1.8,0.7C102.7,169.1,101.2,167.8,101,165.1z M107.5,162.7c-1,0.4-1.9,0.7-2.6,1.2c-0.8,0.6-0.8,1.5-0.3,2.2
			c0.4,0.5,1.2,0.8,1.8,0.8c0.9,0,1-0.8,1.1-1.6C107.5,164.5,107.5,163.8,107.5,162.7z"/>
		<path class="st0" d="M174.3,158.5c-0.1,0.9,0,1.7-0.2,2.4c-0.5,2.4-2.6,3.9-5.4,3.9c-0.4,0-0.8-0.2-1.1-0.1c-0.4,0.2-0.9,0.6-1,1
			c-0.1,0.3,0.3,0.8,0.7,1.1c0.3,0.2,0.8,0.2,1.3,0.2c1.4,0,2.9,0,4.3,0c3,0.2,4.5,2.7,3.2,5.4c-1.3,2.6-3.7,3.6-6.4,3.8
			c-1.4,0.1-2.9-0.1-4.2-0.5c-1.2-0.3-2-1.1-2.4-2.3c-0.3-1-0.1-1.8,0.8-2.4c0.6-0.4,1.1-0.8,1.8-1.3c-0.6-0.4-1.1-0.7-1.5-1.1
			c-1.1-1.1-1-2,0.3-2.8c0.2-0.1,0.4-0.3,0.6-0.4c0.8-0.5,1-0.9,0-1.6c-2.2-1.6-2.1-5,0.1-6.7c1.9-1.4,4-1.7,6.1-0.9
			c1.5,0.5,2.9,0.8,4.4,0.8c0.3,0,0.6,0.4,1,0.6c-0.3,0.3-0.6,0.8-0.9,1C175.4,158.7,174.9,158.5,174.3,158.5z M169.9,175.1
			c0-0.1,0.1-0.1,0.1-0.2c0.7-0.1,1.5-0.2,2.2-0.4c1.2-0.4,1.9-1.4,1.8-2.5c-0.1-1.1-0.8-1.8-2.1-2c-1.2-0.2-2.5-0.2-3.7-0.1
			c-0.9,0-1.7,0.4-2,1.4c-0.3,1-0.1,2,0.8,2.6C167.8,174.3,168.9,174.6,169.9,175.1z M171.2,160.6c0.1,0,0.1,0,0.2,0
			c-0.2-0.8-0.3-1.8-0.8-2.5c-0.3-0.5-1.1-1.1-1.7-1c-0.6,0-1.3,0.7-1.5,1.2c-0.3,0.7-0.3,1.6-0.3,2.4c0.1,1.7,1.1,3,2.3,2.9
			c1.1-0.1,1.8-1.2,1.8-2.9C171.2,160.7,171.2,160.6,171.2,160.6z"/>
		<path class="st0" d="M127.6,161c-1,0-2,0-3,0c-0.3,0-0.7,0.4-0.7,0.6c-0.2,2.9,2.9,5.3,5.7,4.4c0.5-0.2,0.9-0.6,1.4-0.8
			c0.2-0.1,0.5-0.2,0.8-0.3c0,0.3,0.1,0.7,0,0.9c-1.1,2.3-4.3,3.4-6.9,2.4c-2.4-0.9-4-3.3-3.8-6c0.2-3,2.1-5.6,4.7-6.2
			c1.9-0.5,3.7-0.3,5.2,1.2c0.4,0.4,0.8,1,0.9,1.6c0.5,1.6,0.1,2.1-1.6,2.2c-0.1,0-0.2,0-0.2,0C129.2,161,128.4,161,127.6,161
			C127.6,161,127.6,161,127.6,161z M124.2,159.8c1.2,0,2.3,0.1,3.3,0c0.5-0.1,1.4-0.4,1.5-0.8c0.2-0.9-0.3-1.6-1.3-1.9
			C126.2,156.6,124.6,157.7,124.2,159.8z"/>
		<path class="st0" d="M121.4,166.6c-0.2,0.3-0.3,0.7-0.5,0.9c-1.2,1.2-3.7,1.5-5.2,0.8c-1-0.4-1.5-1.3-1.5-2.3
			c-0.1-2.1-0.1-4.2-0.1-6.2c0-0.7,0-1.3,0-1.9c-0.2-0.1-0.3-0.2-0.4-0.2c-0.5-0.2-1-0.3-1.5-0.5c0.4-0.3,0.8-0.6,1.2-1
			c0.9-0.7,1.8-1.5,2.7-2.2c0.3-0.2,0.6-0.4,1.2-0.8c0,1.1,0,1.9,0,2.8c1.3,0.1,2.5,0.1,3.7,0.2c0.2,1-0.1,1.4-1.1,1.4
			c-2.7,0-2.7,0.1-2.7,2.8c0,1.5,0,3,0.2,4.4c0.3,1.9,1.4,2.4,3.2,1.6c0.1-0.1,0.3-0.1,0.4-0.1C121.3,166.4,121.3,166.5,121.4,166.6
			z"/>
		<path class="st0" d="M144.7,149.3c1,0,1.8,0.8,1.9,1.8c0,1-0.8,1.9-1.9,1.9c-1,0-1.8-0.8-1.9-1.8
			C142.8,150.2,143.7,149.3,144.7,149.3z"/>
	</g>
</g>
</svg>
