<?xml version="1.0" encoding="utf-8"?>
<!-- Generator: Adobe Illustrator 21.0.2, SVG Export Plug-In . SVG Version: 6.00 Build 0)  -->
<svg version="1.1" id="Layer_1" xmlns="http://www.w3.org/2000/svg" xmlns:xlink="http://www.w3.org/1999/xlink" x="0px" y="0px"
	 viewBox="0 0 406 82" style="enable-background:new 0 0 406 82;" xml:space="preserve">
<path class="st0" d="M27.3,34.2c-0.3,0.3-0.5,0.5-0.8,0.6c-5.3,2.8-11,3.8-16.8,2.4c-6.4-1.5-10.4-8-9.6-14.6C1,15.9,4.7,10.9,9.8,7
	c8-6.1,17.1-7.8,26.7-5.7c7,1.5,11.8,7.5,12.4,14.6c0.1,1.5,0.2,3.1,0.1,4.7c-0.1,2.5-1.2,4.6-2.6,6.6c-3.2,4.3-6.5,8.5-9.5,12.9
	c-1.5,2.2-2.8,4.6-3.8,7c-0.5,1.2-0.4,2.8-0.2,4.2s1.2,2,2.6,2c2.4,0,4.4-1.1,6.2-2.6c2.4-2.1,4.3-4.6,6-7.3
	c3.6-5.5,7-11.2,10.9-16.5c5.3-7.2,12.2-12.8,19.6-17.8c0.3-0.2,0.5-0.3,0.8-0.5c0.1,0,0.1-0.1,0.2-0.3c-3.3-2.4-6.7-4.4-10.3-6.1
	c-3.7-1.7-7.6-1.9-11.6-1.7c0-0.1,0-0.2,0-0.3C57.4,0.1,57.5,0,57.5,0c5.7-0.1,11.4-0.2,16.6,2.5c2.3,1.2,4.5,2.8,6.7,4.2
	C81.5,7.2,82,7.3,82.9,7c4.2-1.5,8.4-3.3,12.7-4.1c7.6-1.5,15.2-1.5,22.3,2.2c2.2,1.1,4.3,2.5,5.8,4.6c4.6,6.5,4.1,13.9-5.4,17.1
	c-2.6,0.9-5.2,0.7-7.8,0.4c-0.9-0.1-1.4,0.1-1.6,1.1c1.9,0,3.9,0,5.8,0c0,1.1-0.5,1.5-1.4,1.4c-1.4-0.1-2.8-0.1-4.2,0
	c-0.4,0-1.1,0.3-1.3,0.7c-2.9,5-5.7,10-8.6,15c-0.4,0.7-0.7,1.5-1.1,2.3c-0.5,1.1-0.3,2.2,0.3,3.2c0.6,1.1,1.5,1.4,2.6,1
	c0.8-0.3,1.7-0.6,2.4-1c4.2-2.4,7.5-5.9,10-10c1.6-2.6,2.9-5.3,5.1-7.4c3.3-3.1,7-5.1,11.5-5.5c5.7-0.6,8.3,4.6,7.7,8.6
	c-0.3,1.9-1,3.7-1.6,5.6c0.3-0.1,0.6-0.2,0.9-0.3c2.9-1.2,5.5-2.9,7.9-4.9c0.6-0.5,1-1.3,1.4-2.1c0.9-1.6,1.8-3.2,2.6-4.8
	c0.6-1,1.5-1.6,2.6-1.2c1.9,0.7,3.3,0.4,4.5-1.3c0.1-0.2,0.4-0.3,0.9-0.6c-0.3,0.6-0.5,1-0.7,1.4c-3.2,6-6.3,11.9-9.5,17.9
	c-0.6,1.1-1,2.3-1.2,3.5c-0.3,2,0.7,2.8,2.6,2.1c2.5-0.9,4.3-2.8,5.8-4.9c1.8-2.5,3.4-5.1,4.9-7.8c1.7-3,3.3-6,4.9-9.1
	c0.6-1.1,1.5-1.7,2.6-1.3c1.9,0.7,3.4,0.3,4.6-1.3c0.1-0.2,0.3-0.2,0.7-0.3c-0.2,0.3-0.3,0.7-0.5,1c-3,5.7-6.1,11.3-9,17.1
	c-0.8,1.5-1.3,3.2-1.6,4.8c-0.3,1.7,0.7,2.4,2.5,2.4c2-0.1,3.5-1.1,4.8-2.4c2.5-2.4,4.3-5.4,5.9-8.6c-2.4-2.5-3.2-5.4-2.4-8.7
	c0.6-2.5,1.9-4.4,4.4-5.3c1.9-0.6,3.4-0.1,4.7,1.4c2.2,2.7,2,5.8,1.1,8.9c-0.4,1.2-1,2.3-1.6,3.7c0.7-0.1,1.3-0.2,1.8-0.4
	c2.4-1.1,4.8-2.2,7.2-3.4c0.5-0.2,0.8-0.7,1.1-1.2c1-1.9,2-3.8,2.9-5.6c1.1-2.1,2-2.5,4.3-1.8c0.9,0.3,1.6,0.1,2.3-0.5
	c0.5-0.5,1.1-0.9,1.8-1.3c-1.2,2.3-2.4,4.6-3.6,6.9c0.1,0,0.1,0.1,0.2,0.1c1.4-1,2.6-2.2,4.1-3.1c1.9-1.1,3.9-2.1,6-3
	c0.8-0.3,1.9-0.3,2.8-0.2c2.1,0.3,3.2,2.5,2.4,5c-0.4,1.2-1,2.4-1.7,3.5c-2.5,4-5.1,7.9-7.6,11.9c-0.3,0.4-0.6,0.8-0.7,1.2
	c-0.2,0.6-0.4,1.5-0.2,1.8c0.4,0.4,1.3,0.7,1.9,0.6c1-0.3,2-0.8,2.8-1.5c1.3-1,2.4-2.2,3.5-3.4c3.8-4.1,7.6-8.3,11.4-12.5
	c0.4-0.4,0.7-0.9,1.3,0c-2.4,2.7-4.7,5.3-7.1,8c-2,2.2-3.9,4.4-5.9,6.6c-1.9,2-3.9,3.8-6.7,4.3c-4.9,0.9-6.4-2.9-5.8-6
	c0.3-1.5,1.1-2.9,1.9-4.2c2.1-3.4,4.3-6.6,6.5-9.9c0.1-0.2,0.3-0.4,0.4-0.6c0.2-0.8,0.4-1.5,0.6-2.3c-0.9,0-1.9-0.2-2.6,0.1
	c-2.8,1.1-4.8,3.3-6.7,5.5c-3.5,4-6.2,8.5-8.6,13.2c-0.5,1-1.1,1.9-1.7,2.7c-0.5,0.7-1.3,1.1-2.1,0.8c-2-0.8-3.6-0.5-4.9,1.4
	c-0.1-0.1-0.2-0.2-0.2-0.3c2.5-4.7,4.9-9.4,7.3-14c-2.5,0.8-5.1,1.7-7.6,2.5c-1.1,0.3-1.8,0.7-2.5,1.6c-3.9,4.9-8.9,8.2-15.1,9.5
	c-1.1,0.2-2.3,0.2-3.5,0.1c-2.7-0.3-4.4-2.8-4-5.6c0.1-0.4,0.1-0.8,0-1.3c-0.3,0.3-0.6,0.6-0.9,0.9c-1.5,1.4-2.8,2.8-4.4,4
	c-1.1,0.8-2.4,1.4-3.8,1.8c-3.9,1.1-6.9-1.7-6.3-5.7c0.3-1.9,1.1-3.6,1.8-5.4c0.4-1,1-2,1.4-3.1c-0.3,0.2-0.6,0.4-0.9,0.6
	c-2.2,1.5-4.4,2.8-7,3.5c-0.5,0.1-0.9,0.6-1.2,1c-3.3,4.6-7.5,7.9-13.1,9.1c-5.5,1.2-9.3-2.3-8.9-7.9c0-0.5,0.1-1,0.2-1.8
	c-1.1,1.3-1.9,2.3-2.8,3.3c-2.8,3.1-6,5.6-10.2,6.5c-4.8,1-7.7-1.9-6.7-6.8c0.1-0.4,0.2-0.7,0.1-1.2c-0.8,0.9-1.6,1.7-2.5,2.6
	c-2.5,2.5-5.1,4.8-8.4,6.1c-0.9,0.4-1.9,0.7-2.9,0.8c-2,0.4-3.7-0.1-5.1-1.7c-0.9,0.5-1.7,1-2.5,1.3c-1,0.4-2.1,0.7-3.1,0.7
	c-1.8,0.1-2.7-0.6-3.4-2.2c-0.1-0.4-0.3-0.7-0.6-1.4c-1.9,4.1-3.8,7.9-5.6,11.8c-1.9,4.2-3.7,8.5-5.6,12.7c-0.5,1.1-1.1,2-1.7,3
	s-1.5,1.2-2.6,1c-0.1,0-0.2,0-0.2-0.1c-2.2-1.3-3.8-0.3-5.2,1.3c-0.2,0.2-0.3,0.3-0.7,0.6c5.4-10.1,10.8-20.1,16.1-30.1
	c-0.1-0.1-0.1-0.1-0.2-0.2c-0.3,0.2-0.6,0.3-0.8,0.5C56,53.4,54,54,51.8,54.1c-2.3,0-3.6-0.9-4.3-3c-0.5-1.5-0.6-3-1-4.6
	c-0.2,0.2-0.4,0.4-0.6,0.6c-2,1.8-3.8,3.9-6.1,5.4c-5.2,3.5-10.1,1.2-11.3-5c-0.5-2.8,0.1-5.5,1.1-8.1c1.3-3.3,3.4-6.1,5.5-9
	c2.1-2.8,4.1-5.7,6.1-8.6c0.5-0.7,0.9-1.4,1.3-2.1c4.8-7,0.5-16.3-7.6-17.9C26,0.2,17.3,2.2,9.6,8.4c-3.9,3.2-7,7-8.3,12
	c-2,7.6,2.1,15,9.4,16.3c5.2,1,10.3-0.1,15.1-2.3c0.3-0.2,0.6-0.3,1-0.4C26.9,34,27,34.1,27.3,34.2z M81.4,10.5
	c-4.8,3.9-9.1,8-13.1,12.5c-5.9,6.8-10.1,14.6-14,22.5c-0.8,1.7-1.4,3.5-2,5.2c-0.5,1.6,0.2,2.2,1.8,2c3.5-0.5,6.1-2.3,7.8-5.3
	c3.2-5.7,6.3-11.5,9.4-17.2c0.7-1.3,1.5-1.6,2.9-1.2c0.3,0.1,0.6,0.1,0.9,0.3c0.9,0.4,1.6,0.1,2.3-0.6c0.5-0.5,1.1-1,1.6-1.5
	c0.1,0.1,0.1,0.1,0.2,0.2c-0.3,0.6-0.6,1.2-1,2c4.1-2.5,7.9-1.1,8.9,3.3c0.4,1.8,0.2,3.8-0.2,5.7c-1.1,4.6-4.1,8.1-7.5,11.2
	c-1.3,1.1-2.6,2.2-3.9,3.3c0.9,1.1,1.9,1.8,3.2,1.5c1.6-0.4,3.4-0.8,4.8-1.6c5.5-3.4,10-7.9,13.1-13.7c1.4-2.6,2.7-5.4,4-8.1
	c0.2-0.3,0.3-0.7,0.5-1.2c-2,0-3.8,0-5.7,0c0.6-0.9,1.2-1.4,2.3-1.3c1.3,0.1,2.6-0.1,3.8,0c1.8,0.2,2.9-0.9,4.3-2
	C95.9,23.8,88.3,17.8,81.4,10.5z M116.6,13.9c0.1,0.1,0.2,0.2,0.3,0.3c-2.3,4-4.5,7.9-6.8,12c4.6,1,8.8,0.2,12.4-2.5
	c1.5-1.2,2.7-2.6,2.9-4.6c0.5-4.4-1.2-8-4.6-10.8c-4-3.2-8.7-4.7-13.7-5.1c-5.9-0.4-11.5,0.7-17,2.8c-2.3,0.9-4.5,1.9-7.1,2.9
	c2.5,2.2,4.7,4.3,7.1,6.3c4.7,4,9.7,7.5,15.5,9.8c1.1,0.4,1.9,0.4,2.6-0.6c2.4-3.2,4.8-6.3,7.3-9.5
	C115.8,14.5,116.2,14.2,116.6,13.9z M129.9,42.2c0.7-1.8,1.5-3.5,2-5.3s0.9-3.7,1.1-5.6c0.2-1.5-0.7-2.4-2.2-2
	c-1.3,0.3-2.6,1-3.6,1.9c-2.7,2.4-4.4,5.6-6.2,8.8c-1.6,2.9-3.1,6-3.5,9.4c-0.2,1.2-0.3,2.6,0.7,3.3c1.2,0.8,2.4,0.1,3.4-0.6
	c3.3-2.2,5.3-5.5,7.4-8.7c-1.2-0.7-2.3-1.3-3.3-2c-1.2-0.9-1.4-2.3-0.9-3.6c0.4-1,1.6-1.6,2.8-1.2c0.5,0.2,1.1,0.9,1.2,1.4
	c0.3,1.2-0.7,1.6-1.7,1.9c-0.1,0-0.2,0.1-0.4,0.1C127.2,41.3,128.3,41.9,129.9,42.2z M73.2,50.1c3.3-4.3,6.1-8.7,8-13.6
	c0.6-1.4,1-3,1.2-4.5c0.3-1.7-0.8-2.7-2.4-1.9c-1.4,0.7-2.8,1.7-3.9,2.9c-3.8,4.4-6.5,9.4-8.8,14.7c-0.1,0.1-0.1,0.3-0.1,0.5
	C69.7,47.5,71.4,48.9,73.2,50.1z M174.5,40.5c1.5-2.1,2.1-4.4,2.6-6.7c0.2-1,0.4-2.1,0.3-3.2c0-1.1-0.8-1.7-1.9-1.3
	c-0.6,0.2-1.3,0.6-1.6,1.1c-0.6,1.1-1.1,2.3-1.3,3.5C172.4,36.3,172.6,38.6,174.5,40.5z M72.5,51.3c-1.8-1.6-3.2-2.6-5.2-2
	c-0.3,0.1-0.9,0.5-0.9,0.6c0.2,0.9,0.3,1.9,0.8,2.7c0.3,0.5,1.3,0.9,1.8,0.7C70.2,52.8,71.2,52,72.5,51.3z"/>
<path class="st0" d="M336.5,28.7c0,1.4,0.2,2.3,0.2,3.5c1.6-0.9,3-1.8,4.6-2.5c1.9-0.9,3.2,0.4,4.2,1.9c2.3-0.9,4.6-1.9,7.4-3
	c0,1.1,0,1.8,0,2.5c0,5.3,0,10.4,0,15.6c0,2.5,0.9,3.2,3.2,3.2c2.3,0,3.2-0.7,3.2-3.2c0-3.5,0.2-7.2,0-10.7c0-0.9-1.1-1.9-1.4-2.8
	c-0.2-0.5-0.2-1.4,0-1.6c2.3-1.1,4.6-1.9,7.2-3c0.2,1.2,0.2,2.3,0.4,3.5c1.2-0.7,2.5-1.2,3.5-1.8c5.8-2.6,10.4,0.4,10.4,6.7
	c0,3.2,0,6.5,0,9.7c0,1.6,0.2,3,2.3,3.2c0.4,0,0.9,0.7,1.2,1.1c-0.2,0.2-0.2,0.4-0.4,0.5c-3.7,0-7.4,0-11.1,0
	c-0.4,0-0.9-0.4-0.9-0.7c0-0.4,0.4-0.9,0.7-0.9c2.3-0.2,2.3-1.8,2.3-3.3c0-3.3,0-6.7,0-9.8c-0.2-2.6-1.6-3.9-4-3.9
	c-2.5,0-4,1.4-4.2,4c0,3.5,0,6.8,0,10.4c0,1.4,0.4,2.5,1.9,2.6c0.4,0,0.7,0.5,0.9,0.9c-0.4,0.2-0.7,0.7-1.1,0.7
	c-7.5,0-15.1,0-22.6,0c-0.2-0.2-0.2-0.4-0.4-0.7c0.5-0.4,0.9-0.9,1.4-1.1c1.4-0.4,1.9-1.2,1.9-2.5c0-3.9,0-7.9,0-11.8
	c0-0.9-0.7-1.6-1.2-3c-1.8,3-3.7,3.2-6.1,1.8c-1.6-1.1-2.6-0.2-2.8,1.8c0,3.9,0,7.5,0,11.4c0,1.8,0.9,2.3,2.5,2.5
	c0.7,0,1.2,0.5,1.9,0.9c-0.2,0.2-0.2,0.5-0.4,0.7c-4,0-8.1,0-12.1,0c-0.4,0-0.5-0.4-0.9-0.7c0.4-0.4,0.5-0.9,0.9-1.1
	c2.1-0.2,2.3-1.8,2.3-3.3c0-3,0-6,0-9.1c0-1.8,0.2-3.5-1.8-4.4c-0.2,0,0-1.2,0.2-1.4C331.8,30.6,333.9,29.7,336.5,28.7z"/>
<path class="st0" d="M273.2,45.9c-1.1,5.3-4.9,5.6-8.8,6.1c-6.8,0.9-13.3,0-18.8-4.6c-8.9-7.2-8.4-24.9,6-30.4
	c6.5-2.5,13-1.9,19.5-0.4c0.4,0.2,1.1,0.9,1.1,1.2c0.4,2.1,0.4,4.2,0.5,6.3c0,0.4-0.4,0.9-0.5,1.2c-0.4-0.4-0.9-0.5-1.2-0.9
	c-2.8-5.6-5.4-7.4-11.1-7c-5.8,0.4-9.7,3.5-11.4,8.8c-1.8,5.1-1.6,10.4,0.5,15.4c2.6,6,8.4,9.1,14.7,8.1c3.7-0.7,6.1-3,7.9-6
	c0.4-0.7,1.2-1.2,1.9-1.8c0,0.9,0.2,1.6,0.2,2.5c0,0.2,0,0.4,0,0.2c1.6-0.9,3.2-1.9,4.7-2.8c1.1-0.5,2.3-0.9,3.3-1.2
	c3.3-1.2,4.2-2.8,3-6.1c-0.4-1.1-1.8-2.1-2.8-2.3c-1.4-0.4-2.6,0.7-2.8,2.1c-0.4,2.5-2.1,2.6-4,3c-1.4,0.2-1.9-0.5-1.2-1.8
	c0.2-0.2,0.2-0.5,0.4-0.7c2.1-3.5,8.2-5.8,12.3-4.7c2.3,0.7,3.9,2.1,3.9,4.6c0.2,3.2,0,6.3-0.2,9.5c0,0.9,0,1.8,0,2.8
	c0.2,2.1,1.2,2.8,3.5,2.3c0.4,0,0.7,0,1.4-0.2c-0.4,0.7-0.5,1.2-0.9,1.6c-2.1,2.1-6,2.5-8.2,0.5c-1.1-0.9-1.6-0.7-2.6-0.2
	c-0.9,0.5-2.1,1.1-3.2,1.2C276.2,52.9,273.5,50.6,273.2,45.9z M284.6,41.7c-1.8,0.7-3.3,1.2-4.6,2.1c-1.4,1.1-1.4,2.6-0.5,3.9
	c0.7,0.9,2.1,1.4,3.2,1.4c1.6,0,1.8-1.4,1.9-2.8C284.6,44.8,284.6,43.6,284.6,41.7z"/>
<path class="st0" d="M401.8,34.3c-0.2,1.6,0,3-0.4,4.2c-0.9,4.2-4.6,6.8-9.5,6.8c-0.7,0-1.4-0.4-1.9-0.2c-0.7,0.4-1.6,1.1-1.8,1.8
	c-0.2,0.5,0.5,1.4,1.2,1.9c0.5,0.4,1.4,0.4,2.3,0.4c2.5,0,5.1,0,7.5,0c5.3,0.4,7.9,4.7,5.6,9.5c-2.3,4.6-6.5,6.3-11.2,6.7
	c-2.5,0.2-5.1-0.2-7.4-0.9c-2.1-0.5-3.5-1.9-4.2-4c-0.5-1.8-0.2-3.2,1.4-4.2c1.1-0.7,1.9-1.4,3.2-2.3c-1.1-0.7-1.9-1.2-2.6-1.9
	c-1.9-1.9-1.8-3.5,0.5-4.9c0.4-0.2,0.7-0.5,1.1-0.7c1.4-0.9,1.8-1.6,0-2.8c-3.9-2.8-3.7-8.8,0.2-11.8c3.3-2.5,7-3,10.7-1.6
	c2.6,0.9,5.1,1.4,7.7,1.4c0.5,0,1.1,0.7,1.8,1.1c-0.5,0.5-1.1,1.4-1.6,1.8C403.7,34.6,402.9,34.3,401.8,34.3z M394.1,63.4
	c0-0.2,0.2-0.2,0.2-0.4c1.2-0.2,2.6-0.4,3.9-0.7c2.1-0.7,3.3-2.5,3.2-4.4c-0.2-1.9-1.4-3.2-3.7-3.5c-2.1-0.4-4.4-0.4-6.5-0.2
	c-1.6,0-3,0.7-3.5,2.5c-0.5,1.8-0.2,3.5,1.4,4.6C390.4,62,392.3,62.5,394.1,63.4z M396.4,38c0.2,0,0.2,0,0.4,0
	c-0.4-1.4-0.5-3.2-1.4-4.4c-0.5-0.9-1.9-1.9-3-1.8c-1.1,0-2.3,1.2-2.6,2.1c-0.5,1.2-0.5,2.8-0.5,4.2c0.2,3,1.9,5.3,4,5.1
	c1.9-0.2,3.2-2.1,3.2-5.1V38z"/>
<path class="st0" d="M319.9,38.7c-1.8,0-3.5,0-5.3,0c-0.5,0-1.2,0.7-1.2,1.1c-0.4,5.1,5.1,9.3,10,7.7c0.9-0.4,1.6-1.1,2.5-1.4
	c0.4-0.2,0.9-0.4,1.4-0.5c0,0.5,0.2,1.2,0,1.6c-1.9,4-7.5,6-12.1,4.2c-4.2-1.6-7-5.8-6.7-10.5c0.4-5.3,3.7-9.8,8.2-10.9
	c3.3-0.9,6.5-0.5,9.1,2.1c0.7,0.7,1.4,1.8,1.6,2.8c0.9,2.8,0.2,3.7-2.8,3.9c-0.2,0-0.4,0-0.4,0C322.7,38.7,321.3,38.7,319.9,38.7
	L319.9,38.7z M313.9,36.6c2.1,0,4,0.2,5.8,0c0.9-0.2,2.5-0.7,2.6-1.4c0.4-1.6-0.5-2.8-2.3-3.3C317.4,31,314.6,32.9,313.9,36.6z"/>
<path class="st0" d="M309,48.5c-0.4,0.5-0.5,1.2-0.9,1.6c-2.1,2.1-6.5,2.6-9.1,1.4c-1.8-0.7-2.6-2.3-2.6-4
	c-0.2-3.7-0.2-7.4-0.2-10.9c0-1.2,0-2.3,0-3.3c-0.4-0.2-0.5-0.4-0.7-0.4c-0.9-0.4-1.8-0.5-2.6-0.9c0.7-0.5,1.4-1.1,2.1-1.8
	c1.6-1.2,3.2-2.6,4.7-3.9c0.5-0.4,1.1-0.7,2.1-1.4c0,1.9,0,3.3,0,4.9c2.3,0.2,4.4,0.2,6.5,0.4c0.4,1.8-0.2,2.5-1.9,2.5
	c-4.7,0-4.7,0.2-4.7,4.9c0,2.6,0,5.3,0.4,7.7c0.5,3.3,2.5,4.2,5.6,2.8c0.2-0.2,0.5-0.2,0.7-0.2C308.8,48.2,308.8,48.3,309,48.5z"/>
<path class="st0" d="M349.9,18.2c1.8,0,3.2,1.4,3.3,3.2c0,1.8-1.4,3.3-3.3,3.3c-1.8,0-3.2-1.4-3.3-3.2
	C346.5,19.7,348.1,18.2,349.9,18.2z"/>
</svg>
